<svg width="21" height="21" viewBox="0 0 21 21" fill="none" xmlns="http://www.w3.org/2000/svg">
<path d="M15.5 9.73005C18.5376 9.73005 21 12.2529 21 15.365C21 18.4771 18.5376 21 15.5 21C12.4624 21 10 18.4771 10 15.365C10 12.2529 12.4624 9.73005 15.5 9.73005ZM15.5 11.7783L15.4101 11.7865C15.206 11.8245 15.0451 11.9894 15.0081 12.1985L15 12.2906L14.9996 14.8519L12.4977 14.8528L12.4078 14.861C12.2037 14.899 12.0427 15.0638 12.0057 15.2729L11.9977 15.365L12.0057 15.457C12.0427 15.6661 12.2037 15.8311 12.4078 15.869L12.4977 15.8773L15.0007 15.8765L15.0011 18.4421L15.0092 18.5342C15.0462 18.7433 15.2071 18.9082 15.4112 18.9462L15.5011 18.9544L15.591 18.9462C15.7951 18.9082 15.956 18.7433 15.9931 18.5342L16.0011 18.4421L16.0007 15.8765L18.5046 15.8773L18.5944 15.869C18.7985 15.8311 18.9595 15.6661 18.9965 15.457L19.0046 15.365L18.9965 15.2729C18.9595 15.0638 18.7985 14.899 18.5944 14.861L18.5046 14.8528L15.9996 14.8519L16 12.2906L15.9919 12.1985C15.9549 11.9894 15.794 11.8245 15.5899 11.7865L15.5 11.7783ZM11.9247 0C12.7225 0 13.4607 0.432838 13.8647 1.13762L14.6793 2.55823H16.75C18.5449 2.55823 20 4.04901 20 5.88798L20.0008 10.5602C18.8328 9.41152 17.2469 8.70551 15.5 8.70551C15.0838 8.70551 14.6767 8.74557 14.2822 8.8221C13.6983 6.97096 12.0018 5.63185 10 5.63185C7.51472 5.63185 5.5 7.69603 5.5 10.2423C5.5 12.4466 7.00995 14.2897 9.028 14.7449C9.0094 14.949 9 15.1558 9 15.365C9 16.6854 9.375 17.9159 10.0219 18.9511L3.25 18.9509C1.45507 18.9509 0 17.4601 0 15.6212V5.88798C0 4.04901 1.45507 2.55823 3.25 2.55823H5.33042L6.205 1.09897C6.61425 0.416117 7.34026 0 8.1224 0H11.9247ZM10 7.16866C11.3296 7.16866 12.4571 8.05483 12.8507 9.28202C11.203 10.0366 9.9187 11.4722 9.3382 13.2392C7.99965 12.9319 7 11.7067 7 10.2423C7 8.54476 8.3431 7.16866 10 7.16866Z" fill="#212121"/>
</svg>
